# xmcd
#
# Track frame offsets: 
#        183
#        13258
#        26678
#        38798
#        48923
#        62580
#        73368
#        86885
#        99218
#        114098
#        126203
#        139343
#        152565
#        165920
#        179135
#        190733
#        204488
#        217525
#        229100
#        243895
#
# Disc length: 3392 seconds
#
# Revision: 2
# Processed by: cddbd v1.5.2PL0 Copyright (c) Steve Scherf et al.
# Submitted via: ExactAudioCopy v1.0b4
#
DISCID=0b0d3e14
DTITLE=Various Artist - Go Go Power
DYEAR=1992
DGENRE=Soul
TTITLE0=Sugar Pie DeSanto - Go Go Power
TTITLE1=Marlena Shaw - Let's Go Wade In The Water
TTITLE2=Jackie Ross - Jerk and Twine
TTITLE3=Johnny Nash - Love Ain't Nothing
TTITLE4=Billy Stewart - Secret Love
TTITLE5=Sugar Pie DeSanto and Etta James - In The Basement
TTITLE6=Etta James - Mellow Fellow
TTITLE7=Little Milton - Grits Ain't Groceries (All Around The World)
TTITLE8=Tony Clarke - Ain't Love Good, Ain't Love Proud
TTITLE9=Terry Callier - Look At Me Now
TTITLE10=Bobby McClure - Peak Of Love
TTITLE11=Billy Stewart - Everyday I Have The Blues
TTITLE12=Sugar Pie DeSanto and Etta James - Do I Make Myself Clear
TTITLE13=Etta James - Seven Day Fool
TTITLE14=The Knight Brothers - That'll Get It
TTITLE15=Sugar Pie DeSanto - I Don't Wanna Fuss
TTITLE16=Johnny Nash - Strange Feeling
TTITLE17=Jackie Ross - Take Me For A Little While
TTITLE18=James Phelps - Love Is A 5 Letter Word
TTITLE19=Little Milton - Ain't No Big Deal
EXTD=
EXTT0=
EXTT1=
EXTT2=
EXTT3=
EXTT4=
EXTT5=
EXTT6=
EXTT7=
EXTT8=
EXTT9=
EXTT10=
EXTT11=
EXTT12=
EXTT13=
EXTT14=
EXTT15=
EXTT16=
EXTT17=
EXTT18=
EXTT19=
PLAYORDER=
